<?xml version="1.0" standalone="no"?>
<!DOCTYPE svg PUBLIC "-//W3C//DTD SVG 20010904//EN"
 "http://www.w3.org/TR/2001/REC-SVG-20010904/DTD/svg10.dtd">
<svg version="1.0" xmlns="http://www.w3.org/2000/svg"
 width="700.000000pt" height="700.000000pt" viewBox="0 0 700.000000 700.000000"
 preserveAspectRatio="xMidYMid meet">
<metadata>
Created by potrace 1.14, written by Peter Selinger 2001-2017
</metadata>
<g transform="translate(0.000000,700.000000) scale(0.100000,-0.100000)"
fill="#000000" stroke="none">
<path d="M0 3500 l0 -3500 3500 0 3500 0 0 3500 0 3500 -3500 0 -3500 0 0
-3500z m1695 2474 c26 -10 45 -58 75 -192 36 -161 41 -172 84 -210 50 -44 78
-42 264 20 86 28 171 52 187 53 17 1 100 20 185 43 261 68 545 120 835 152
160 18 654 24 833 11 802 -61 1553 -311 2265 -754 70 -43 127 -85 127 -91 0
-7 -39 -27 -87 -46 -148 -55 -432 -179 -543 -236 -125 -64 -182 -109 -238
-186 -27 -37 -49 -58 -62 -58 -21 0 -310 185 -310 199 0 5 14 39 32 77 25 54
32 82 32 134 1 195 -202 361 -446 363 -80 1 -92 -1 -155 -33 -75 -39 -124 -97
-144 -173 -23 -93 -23 -92 -53 -90 -16 1 -92 20 -170 42 -402 113 -793 158
-1290 148 -343 -7 -574 -36 -831 -102 -145 -38 -189 -70 -201 -146 -5 -29 6
-62 70 -199 87 -188 87 -188 -6 -234 -88 -43 -191 -54 -217 -22 -5 6 -19 52
-31 101 -35 142 -78 270 -101 299 -11 15 -40 37 -62 49 -58 30 -189 30 -264
-1 -72 -29 -252 -112 -403 -184 -288 -138 -421 -198 -442 -198 -30 0 -91 68
-128 144 -38 77 -49 169 -28 229 13 37 16 40 103 68 91 29 256 76 504 144 167
46 326 106 388 148 66 45 106 120 107 201 1 56 -6 76 -78 234 -87 194 -88 197
-22 247 57 44 169 68 221 49z m-18 -1725 c35 -12 44 -34 91 -237 31 -132 49
-163 110 -189 38 -16 72 -9 267 57 65 22 128 40 140 40 11 0 109 22 216 50
1394 353 2708 152 3917 -599 138 -86 148 -100 87 -115 -53 -14 -466 -191 -586
-252 -131 -66 -190 -114 -267 -212 -18 -23 -37 -42 -41 -42 -6 0 -296 183
-310 196 -2 2 11 36 29 76 44 93 47 184 11 265 -44 99 -169 194 -298 228 -140
37 -267 11 -349 -70 -51 -50 -69 -89 -89 -187 -7 -37 -21 -36 -190 12 -673
193 -1497 212 -2140 51 -110 -28 -123 -34 -157 -70 -63 -66 -61 -83 28 -276
l78 -168 -39 -34 c-41 -35 -144 -73 -200 -73 -54 0 -69 23 -108 170 -53 202
-72 246 -119 280 -46 34 -130 54 -185 45 -95 -16 -169 -48 -650 -276 -295
-140 -297 -141 -328 -126 -36 17 -99 106 -127 179 -20 54 -24 148 -7 196 10
29 19 34 122 66 62 19 180 54 262 76 310 86 363 102 476 146 136 53 178 84
214 158 46 93 40 134 -44 320 -40 87 -74 170 -77 185 -10 48 45 97 141 127 50
16 84 17 122 3z m19 -1745 c10 -14 34 -95 54 -180 33 -138 41 -159 71 -190 53
-54 77 -54 262 7 89 29 176 53 192 54 17 2 131 28 254 59 965 242 1908 211
2801 -91 362 -122 768 -318 1113 -536 53 -34 96 -66 94 -70 -1 -5 -79 -39
-172 -76 -218 -87 -293 -120 -440 -193 -142 -71 -203 -117 -262 -198 -24 -33
-50 -60 -59 -60 -18 0 -314 189 -314 201 0 5 14 36 31 70 64 124 46 246 -51
353 -82 88 -236 155 -361 156 -61 0 -144 -26 -196 -61 -50 -35 -86 -93 -107
-172 -8 -31 -18 -62 -21 -67 -7 -12 -16 -10 -195 42 -360 103 -746 151 -1205
151 -348 -1 -617 -31 -915 -105 -113 -28 -129 -35 -161 -68 -36 -38 -53 -85
-43 -117 4 -10 38 -87 76 -170 68 -147 70 -154 55 -177 -41 -62 -241 -112
-278 -70 -9 11 -26 59 -38 107 -40 162 -80 273 -109 302 -62 63 -171 82 -281
49 -57 -17 -291 -122 -638 -288 -123 -58 -232 -106 -244 -106 -32 0 -92 68
-131 147 -30 61 -33 76 -33 155 0 65 4 91 15 102 20 19 195 74 485 153 495
134 607 204 608 383 1 47 -9 77 -71 211 -39 86 -74 168 -78 183 -9 39 16 69
87 105 50 25 75 31 125 31 57 0 65 -3 80 -26z"/>
</g>
</svg>
